<?xml version="1.0" standalone="no"?>
 <!DOCTYPE svg PUBLIC "-//W3C//DTD SVG 1.1//EN" 
 "http://www.w3.org/Graphics/SVG/1.1/DTD/svg11.dtd"> 
<svg
  xmlns:svg="http://www.w3.org/2000/svg"
  xmlns="http://www.w3.org/2000/svg"
  xmlns:xlink="http://www.w3.org/1999/xlink"
  version="1.1"
  width="30.5308mm" height="22.0472mm" viewBox="0.0000 0.0000 30.5308 22.0472">
<title>SVG Image created as Project1-F_Cu.svg date 2024/10/21 13:25:17 </title>
  <desc>Image generated by PCBNEW </desc>
<g style="fill:#000000; fill-opacity:1.0000;stroke:#000000; stroke-opacity:1.0000;
stroke-linecap:round; stroke-linejoin:round;"
 transform="translate(0 0) scale(1 1)">
<path style="fill:none; 
stroke:#000000; stroke-width:0.0500; stroke-opacity:1; 
stroke-linecap:round; stroke-linejoin:round;fill:none"
d="M 0.0250,0.0250
30.5250,0.0250
30.5250,22.0250
0.0250,22.0250
Z" /> 
<path style="fill:#000000; fill-opacity:1.0000; stroke:none;fill-rule:evenodd;"
d="M 27.2750,7.0000
28.9750,7.0000
28.9750,8.4000
27.2750,8.4000
Z" /> 
<path style="fill:#000000; fill-opacity:1.0000; stroke:none;fill-rule:evenodd;"
d="M 27.2750,10.4000
28.9750,10.4000
28.9750,11.8000
27.2750,11.8000
Z" /> 
<path style="fill:#000000; fill-opacity:1.0000; stroke:none;fill-rule:evenodd;"
d="M 20.8150,13.6500
22.5150,13.6500
22.5150,16.1500
20.8150,16.1500
Z" /> 
<path style="fill:#000000; fill-opacity:1.0000; stroke:none;fill-rule:evenodd;"
d="M 18.2750,13.6500
19.9750,13.6500
19.9750,16.1500
18.2750,16.1500
Z" /> 
<path style="fill:#000000; fill-opacity:1.0000; stroke:none;fill-rule:evenodd;"
d="M 15.7350,13.6500
17.4350,13.6500
17.4350,16.1500
15.7350,16.1500
Z" /> 
<path style="fill:#000000; fill-opacity:1.0000; stroke:none;fill-rule:evenodd;"
d="M 28.9750,17.8000
27.2750,17.8000
27.2750,16.4000
28.9750,16.4000
Z" /> 
<path style="fill:#000000; fill-opacity:1.0000; stroke:none;fill-rule:evenodd;"
d="M 28.9750,14.4000
27.2750,14.4000
27.2750,13.0000
28.9750,13.0000
Z" /> 
<path style="fill:#000000; fill-opacity:1.0000; stroke:none;fill-rule:evenodd;"
d="M 1.3750,8.4500
1.3750,6.9500
3.8750,6.9500
3.8750,8.4500
Z" /> 
<path style="fill:#000000; fill-opacity:1.0000; stroke:none;fill-rule:evenodd;"
d="M 8.3750,8.4500
8.3750,6.9500
10.8750,6.9500
10.8750,8.4500
Z" /> 
<path style="fill:#000000; fill-opacity:1.0000; stroke:none;fill-rule:evenodd;"
d="M 1.3750,12.4500
1.3750,10.9500
3.8750,10.9500
3.8750,12.4500
Z" /> 
<path style="fill:#000000; fill-opacity:1.0000; stroke:none;fill-rule:evenodd;"
d="M 8.3750,12.4500
8.3750,10.9500
10.8750,10.9500
10.8750,12.4500
Z" /> 
<path style="fill:#000000; fill-opacity:1.0000; stroke:none;fill-rule:evenodd;"
d="M 16.7250,3.0500
16.7250,1.3500
18.1250,1.3500
18.1250,3.0500
Z" /> 
<path style="fill:#000000; fill-opacity:1.0000; stroke:none;fill-rule:evenodd;"
d="M 20.1250,3.0500
20.1250,1.3500
21.5250,1.3500
21.5250,3.0500
Z" /> 
<path style="fill:#000000; fill-opacity:1.0000; stroke:none;fill-rule:evenodd;"
d="M 15.3250,6.8300
15.3250,6.0300
17.3250,6.0300
17.3250,6.8300
Z" /> 
<path style="fill:#000000; fill-opacity:1.0000; stroke:none;fill-rule:evenodd;"
d="M 15.3250,8.1000
15.3250,7.3000
17.3250,7.3000
17.3250,8.1000
Z" /> 
<path style="fill:#000000; fill-opacity:1.0000; stroke:none;fill-rule:evenodd;"
d="M 15.3250,9.3700
15.3250,8.5700
17.3250,8.5700
17.3250,9.3700
Z" /> 
<path style="fill:#000000; fill-opacity:1.0000; stroke:none;fill-rule:evenodd;"
d="M 15.3250,10.6400
15.3250,9.8400
17.3250,9.8400
17.3250,10.6400
Z" /> 
<path style="fill:#000000; fill-opacity:1.0000; stroke:none;fill-rule:evenodd;"
d="M 20.9250,10.6400
20.9250,9.8400
22.9250,9.8400
22.9250,10.6400
Z" /> 
<path style="fill:#000000; fill-opacity:1.0000; stroke:none;fill-rule:evenodd;"
d="M 20.9250,9.3700
20.9250,8.5700
22.9250,8.5700
22.9250,9.3700
Z" /> 
<path style="fill:#000000; fill-opacity:1.0000; stroke:none;fill-rule:evenodd;"
d="M 20.9250,8.1000
20.9250,7.3000
22.9250,7.3000
22.9250,8.1000
Z" /> 
<path style="fill:#000000; fill-opacity:1.0000; stroke:none;fill-rule:evenodd;"
d="M 20.9250,6.8300
20.9250,6.0300
22.9250,6.0300
22.9250,6.8300
Z" /> 
</g>
<g style="fill:none; 
stroke:#000000; stroke-width:0.4000; stroke-opacity:1; 
stroke-linecap:round; stroke-linejoin:round;">
<path d="M19.1250 16.5500
L18.4750 17.2000
" />
<path d="M21.9250 5.0000
L21.9250 6.4300
" />
<path d="M20.8250 3.9000
L21.9250 5.0000
" />
<path d="M19.1250 16.5500
L19.1250 14.9000
" />
<path d="M20.5250 6.4300
L19.1250 7.8300
" />
<path d="M19.6750 17.1000
L19.1250 16.5500
" />
<path d="M2.6250 11.7000
L9.6250 11.7000
" />
<path d="M28.1250 17.1000
L19.6750 17.1000
" />
<path d="M18.4750 17.2000
L9.6250 17.2000
" />
<path d="M20.8250 2.2000
L20.8250 3.9000
" />
<path d="M9.6250 17.2000
L9.6250 11.7000
" />
<path d="M19.1250 7.8300
L19.1250 14.9000
" />
<path d="M21.9250 6.4300
L20.5250 6.4300
" />
<path d="M17.9250 6.6300
L17.7250 6.4300
" />
<path d="M16.5850 14.9000
L16.5850 12.5800
" />
<path d="M17.9250 11.2400
L17.9250 6.6300
" />
<path d="M17.7250 6.4300
L16.3250 6.4300
" />
<path d="M17.4250 3.9000
L16.3250 5.0000
" />
<path d="M16.3250 5.0000
L16.3250 6.4300
" />
<path d="M16.5850 12.5800
L17.9250 11.2400
" />
<path d="M17.4250 2.2000
L17.4250 3.9000
" />
<path d="M28.1250 11.1000
L28.1250 13.7000
" />
<path d="M20.3550 8.9700
L20.3250 9.0000
" />
<path d="M20.3250 11.2400
L21.6650 12.5800
" />
<path d="M21.9250 8.9700
L20.3550 8.9700
" />
<path d="M20.3250 9.0000
L20.3250 11.2400
" />
<path d="M21.6650 12.5800
L21.6650 14.9000
" />
<path d="M28.1250 7.7000
L21.9250 7.7000
" />
<path d="M2.6250 7.7000
L9.6250 7.7000
" />
<path d="M9.6250 7.7000
L16.3250 7.7000
" />
</g> 
</svg>
